<svg width="178" height="26" viewBox="0 0 178 26" fill="none" xmlns="http://www.w3.org/2000/svg">
<path d="M50.8535 13.8145C50.8535 16.0658 50.4342 17.9479 49.5957 19.4609C48.7572 20.9648 47.5404 22.0996 45.9453 22.8652C44.3503 23.6217 42.4271 24 40.1758 24H34.625V4.01172H40.7773C42.8464 4.01172 44.6328 4.38542 46.1367 5.13281C47.6406 5.87109 48.8027 6.9694 49.623 8.42773C50.4434 9.87695 50.8535 11.6725 50.8535 13.8145ZM47.4355 13.9102C47.4355 12.2695 47.1758 10.9206 46.6562 9.86328C46.1458 8.80599 45.3893 8.02214 44.3867 7.51172C43.3932 6.99219 42.1673 6.73242 40.709 6.73242H37.9062V21.252H40.2305C42.6458 21.252 44.4505 20.6367 45.6445 19.4062C46.8385 18.1758 47.4355 16.3438 47.4355 13.9102ZM62.502 8.57812C62.7572 8.57812 63.0352 8.5918 63.3359 8.61914C63.6367 8.64648 63.8965 8.68294 64.1152 8.72852L63.8145 11.7363C63.623 11.6816 63.3861 11.6406 63.1035 11.6133C62.8301 11.5859 62.584 11.5723 62.3652 11.5723C61.791 11.5723 61.2441 11.668 60.7246 11.8594C60.2051 12.0417 59.7448 12.3242 59.3438 12.707C58.9427 13.0807 58.6283 13.5501 58.4004 14.1152C58.1725 14.6803 58.0586 15.3366 58.0586 16.084V24H54.832V8.86523H57.3477L57.7852 11.5312H57.9355C58.2363 10.9935 58.61 10.5013 59.0566 10.0547C59.5033 9.60807 60.0137 9.2526 60.5879 8.98828C61.1712 8.71484 61.8092 8.57812 62.502 8.57812ZM72.9473 8.57812C74.2962 8.57812 75.4538 8.85612 76.4199 9.41211C77.3861 9.9681 78.1289 10.7565 78.6484 11.7773C79.168 12.7982 79.4277 14.0195 79.4277 15.4414V17.1641H69.3242C69.3607 18.6315 69.7526 19.7617 70.5 20.5547C71.2565 21.3477 72.3138 21.7441 73.6719 21.7441C74.638 21.7441 75.5039 21.653 76.2695 21.4707C77.0443 21.2793 77.8418 21.0013 78.6621 20.6367V23.248C77.9056 23.6035 77.1354 23.8633 76.3516 24.0273C75.5677 24.1914 74.6289 24.2734 73.5352 24.2734C72.0495 24.2734 70.7415 23.9863 69.6113 23.4121C68.4902 22.8288 67.6107 21.9629 66.9727 20.8145C66.3438 19.666 66.0293 18.2396 66.0293 16.5352C66.0293 14.8398 66.3164 13.3997 66.8906 12.2148C67.4648 11.0299 68.2715 10.1276 69.3105 9.50781C70.3496 8.88802 71.5618 8.57812 72.9473 8.57812ZM72.9473 10.998C71.9355 10.998 71.1152 11.3262 70.4863 11.9824C69.8665 12.6387 69.502 13.6003 69.3926 14.8672H76.2832C76.2741 14.1107 76.1465 13.4408 75.9004 12.8574C75.6634 12.2741 75.2988 11.8184 74.8066 11.4902C74.3236 11.1621 73.7038 10.998 72.9473 10.998ZM88.9844 8.57812C90.8984 8.57812 92.3431 9.00195 93.3184 9.84961C94.3027 10.6973 94.7949 12.0189 94.7949 13.8145V24H92.5117L91.8965 21.8535H91.7871C91.3587 22.4004 90.9167 22.8516 90.4609 23.207C90.0052 23.5625 89.4766 23.8268 88.875 24C88.2826 24.1823 87.5579 24.2734 86.7012 24.2734C85.7988 24.2734 84.9922 24.1094 84.2812 23.7812C83.5703 23.444 83.0098 22.9336 82.5996 22.25C82.1895 21.5664 81.9844 20.7005 81.9844 19.6523C81.9844 18.0938 82.5632 16.9225 83.7207 16.1387C84.8874 15.3548 86.6465 14.9219 88.998 14.8398L91.623 14.7441V13.9512C91.623 12.903 91.377 12.1556 90.8848 11.709C90.4017 11.2624 89.7181 11.0391 88.834 11.0391C88.0775 11.0391 87.3438 11.1484 86.6328 11.3672C85.9219 11.5859 85.2292 11.8548 84.5547 12.1738L83.5156 9.9043C84.2539 9.51237 85.0924 9.19336 86.0312 8.94727C86.9792 8.70117 87.9635 8.57812 88.9844 8.57812ZM91.6094 16.7676L89.6543 16.8359C88.0501 16.8906 86.9245 17.1641 86.2773 17.6562C85.6302 18.1484 85.3066 18.8229 85.3066 19.6797C85.3066 20.4271 85.5299 20.974 85.9766 21.3203C86.4232 21.6576 87.0111 21.8262 87.7402 21.8262C88.8522 21.8262 89.7728 21.5117 90.502 20.8828C91.2402 20.2448 91.6094 19.3105 91.6094 18.0801V16.7676ZM116.396 8.57812C118.092 8.57812 119.368 9.01562 120.225 9.89062C121.09 10.7656 121.523 12.1693 121.523 14.1016V24H118.311V14.6758C118.311 13.5273 118.087 12.6615 117.641 12.0781C117.194 11.4948 116.515 11.2031 115.604 11.2031C114.327 11.2031 113.407 11.6133 112.842 12.4336C112.286 13.2448 112.008 14.4251 112.008 15.9746V24H108.795V14.6758C108.795 13.9102 108.695 13.2721 108.494 12.7617C108.303 12.2422 108.007 11.8548 107.605 11.5996C107.204 11.3353 106.699 11.2031 106.088 11.2031C105.204 11.2031 104.497 11.4036 103.969 11.8047C103.449 12.2057 103.076 12.7982 102.848 13.582C102.62 14.3568 102.506 15.3092 102.506 16.4395V24H99.293V8.86523H101.795L102.246 10.9023H102.424C102.734 10.3737 103.117 9.94076 103.572 9.60352C104.037 9.25716 104.552 9.00195 105.117 8.83789C105.682 8.66471 106.27 8.57812 106.881 8.57812C108.011 8.57812 108.964 8.77865 109.738 9.17969C110.513 9.57161 111.092 10.1732 111.475 10.9844H111.721C112.195 10.1641 112.855 9.55794 113.703 9.16602C114.551 8.77409 115.449 8.57812 116.396 8.57812ZM136.18 19.6797C136.18 20.6732 135.938 21.5117 135.455 22.1953C134.972 22.8789 134.266 23.3984 133.336 23.7539C132.415 24.1003 131.285 24.2734 129.945 24.2734C128.888 24.2734 127.977 24.196 127.211 24.041C126.454 23.8952 125.739 23.6673 125.064 23.3574V20.582C125.785 20.9193 126.591 21.2109 127.484 21.457C128.387 21.7031 129.239 21.8262 130.041 21.8262C131.098 21.8262 131.859 21.6621 132.324 21.334C132.789 20.9967 133.021 20.5501 133.021 19.9941C133.021 19.666 132.926 19.3743 132.734 19.1191C132.552 18.8548 132.206 18.5859 131.695 18.3125C131.194 18.0299 130.456 17.6927 129.48 17.3008C128.523 16.918 127.717 16.5352 127.061 16.1523C126.404 15.7695 125.908 15.3092 125.57 14.7715C125.233 14.2246 125.064 13.5273 125.064 12.6797C125.064 11.3398 125.593 10.3236 126.65 9.63086C127.717 8.92904 129.125 8.57812 130.875 8.57812C131.805 8.57812 132.68 8.67383 133.5 8.86523C134.329 9.04753 135.141 9.31641 135.934 9.67188L134.922 12.0918C134.238 11.791 133.55 11.5449 132.857 11.3535C132.174 11.153 131.477 11.0527 130.766 11.0527C129.936 11.0527 129.303 11.1803 128.865 11.4355C128.437 11.6908 128.223 12.0553 128.223 12.5293C128.223 12.8848 128.327 13.1855 128.537 13.4316C128.747 13.6777 129.107 13.9238 129.617 14.1699C130.137 14.416 130.857 14.7214 131.777 15.0859C132.68 15.4323 133.459 15.7969 134.115 16.1797C134.781 16.5534 135.291 17.0137 135.646 17.5605C136.002 18.1074 136.18 18.8138 136.18 19.6797ZM145.586 8.57812C147.5 8.57812 148.945 9.00195 149.92 9.84961C150.904 10.6973 151.396 12.0189 151.396 13.8145V24H149.113L148.498 21.8535H148.389C147.96 22.4004 147.518 22.8516 147.062 23.207C146.607 23.5625 146.078 23.8268 145.477 24C144.884 24.1823 144.16 24.2734 143.303 24.2734C142.4 24.2734 141.594 24.1094 140.883 23.7812C140.172 23.444 139.611 22.9336 139.201 22.25C138.791 21.5664 138.586 20.7005 138.586 19.6523C138.586 18.0938 139.165 16.9225 140.322 16.1387C141.489 15.3548 143.248 14.9219 145.6 14.8398L148.225 14.7441V13.9512C148.225 12.903 147.979 12.1556 147.486 11.709C147.003 11.2624 146.32 11.0391 145.436 11.0391C144.679 11.0391 143.945 11.1484 143.234 11.3672C142.523 11.5859 141.831 11.8548 141.156 12.1738L140.117 9.9043C140.855 9.51237 141.694 9.19336 142.633 8.94727C143.581 8.70117 144.565 8.57812 145.586 8.57812ZM148.211 16.7676L146.256 16.8359C144.652 16.8906 143.526 17.1641 142.879 17.6562C142.232 18.1484 141.908 18.8229 141.908 19.6797C141.908 20.4271 142.132 20.974 142.578 21.3203C143.025 21.6576 143.613 21.8262 144.342 21.8262C145.454 21.8262 146.374 21.5117 147.104 20.8828C147.842 20.2448 148.211 19.3105 148.211 18.0801V16.7676ZM159.121 24H155.895V2.72656H159.121V24ZM169.744 8.57812C171.093 8.57812 172.251 8.85612 173.217 9.41211C174.183 9.9681 174.926 10.7565 175.445 11.7773C175.965 12.7982 176.225 14.0195 176.225 15.4414V17.1641H166.121C166.158 18.6315 166.549 19.7617 167.297 20.5547C168.053 21.3477 169.111 21.7441 170.469 21.7441C171.435 21.7441 172.301 21.653 173.066 21.4707C173.841 21.2793 174.639 21.0013 175.459 20.6367V23.248C174.702 23.6035 173.932 23.8633 173.148 24.0273C172.365 24.1914 171.426 24.2734 170.332 24.2734C168.846 24.2734 167.538 23.9863 166.408 23.4121C165.287 22.8288 164.408 21.9629 163.77 20.8145C163.141 19.666 162.826 18.2396 162.826 16.5352C162.826 14.8398 163.113 13.3997 163.688 12.2148C164.262 11.0299 165.068 10.1276 166.107 9.50781C167.146 8.88802 168.359 8.57812 169.744 8.57812ZM169.744 10.998C168.732 10.998 167.912 11.3262 167.283 11.9824C166.663 12.6387 166.299 13.6003 166.189 14.8672H173.08C173.071 14.1107 172.943 13.4408 172.697 12.8574C172.46 12.2741 172.096 11.8184 171.604 11.4902C171.12 11.1621 170.501 10.998 169.744 10.998Z" fill="#1E1E2F"/>
<path d="M-1.09278e-06 1.90735e-06C3.19465 1.76771e-06 6.25846 1.31696 8.51742 3.66117C10.7764 6.00537 12.0455 9.18479 12.0455 12.5C12.0455 15.8152 10.7764 18.9946 8.51742 21.3388C6.25846 23.683 3.19465 25 1.90735e-06 25L-5.46392e-07 12.5L-1.09278e-06 1.90735e-06Z" fill="#1E1E2F"/>
<path d="M12 1.38281e-06C15.1947 1.24317e-06 18.2585 1.31696 20.5174 3.66117C22.7764 6.00537 24.0455 9.18479 24.0455 12.5C24.0455 15.8152 22.7764 18.9946 20.5174 21.3388C18.2585 23.683 15.1947 25 12 25L12 12.5L12 1.38281e-06Z" fill="#1E1E2F"/>
</svg>
